<?xml version="1.0" standalone="no"?>
<!DOCTYPE svg PUBLIC "-//W3C//DTD SVG 20010904//EN"
 "http://www.w3.org/TR/2001/REC-SVG-20010904/DTD/svg10.dtd">
<svg version="1.0" xmlns="http://www.w3.org/2000/svg"
 width="327.000000pt" height="327.000000pt" viewBox="0 0 327.000000 327.000000"
 preserveAspectRatio="xMidYMid meet">
<metadata>
Created by potrace 1.14, written by Peter Selinger 2001-2017
</metadata>
<g transform="translate(0.000000,327.000000) scale(0.100000,-0.100000)"
fill="#000000" stroke="none">
<path d="M4 2091 c-2 -2 -4 -13 -4 -23 0 -14 8 -18 35 -18 l35 0 0 -269 c0
-148 -4 -281 -9 -294 -5 -14 -21 -27 -35 -31 -14 -3 -26 -13 -26 -21 0 -13 36
-15 250 -15 l250 0 1 63 c1 34 2 77 3 94 1 25 -3 33 -16 33 -13 0 -18 -8 -18
-26 0 -39 -29 -93 -60 -109 -17 -9 -67 -15 -141 -16 l-114 -3 -1 147 0 147 25
1 c119 5 152 -6 155 -53 1 -13 8 -24 19 -26 15 -3 17 7 17 98 0 99 0 101 -22
98 -20 -3 -23 -8 -20 -39 3 -33 1 -37 -25 -40 -15 -2 -55 -2 -88 1 l-60 5 0
109 c0 141 4 148 105 153 119 6 160 -17 175 -98 4 -21 12 -36 21 -36 12 0 14
16 12 79 -1 44 -6 82 -11 85 -11 7 -446 10 -453 4z"/>
<path d="M677 1896 c-73 -37 -100 -121 -60 -187 19 -31 34 -41 164 -103 80
-37 100 -62 90 -106 -9 -37 -69 -64 -123 -55 -51 9 -105 58 -114 104 -6 29
-28 43 -36 21 -1 -5 -1 -42 2 -81 4 -59 8 -73 23 -75 9 -1 17 4 17 12 0 17 0
17 41 0 55 -23 114 -26 166 -11 66 19 96 55 101 120 6 73 -23 104 -155 165
-81 38 -105 55 -113 76 -12 31 -7 53 20 82 15 16 30 20 69 18 59 -2 93 -32
112 -96 7 -22 18 -40 26 -40 10 0 13 21 13 85 0 78 -2 85 -20 85 -11 0 -20 -7
-20 -14 0 -13 -5 -13 -37 1 -57 24 -118 23 -166 -1z"/>
<path d="M1221 1908 c-105 -28 -181 -126 -187 -242 -11 -199 164 -318 339
-233 63 31 109 83 83 93 -8 3 -24 -4 -35 -15 -52 -52 -143 -69 -199 -35 -124
72 -121 338 3 390 45 18 79 18 122 -2 32 -16 34 -19 29 -53 -4 -20 -3 -41 1
-47 30 -41 90 -5 79 49 -8 39 -21 54 -68 78 -45 23 -117 30 -167 17z"/>
<path d="M1672 1906 c-24 -6 -59 -26 -79 -45 -30 -28 -34 -38 -29 -64 7 -36
21 -47 49 -41 28 5 38 24 31 55 -6 33 15 56 61 65 47 9 82 -2 100 -30 19 -29
29 -156 12 -157 -114 -8 -190 -33 -238 -78 -138 -132 51 -277 215 -166 l36 24
0 -24 c0 -24 2 -25 70 -25 63 0 70 2 70 20 0 16 -7 20 -32 20 l-33 0 0 183 c0
162 -2 185 -19 210 -37 55 -123 76 -214 53z m154 -319 c1 -67 -10 -88 -58
-113 -15 -8 -42 -14 -61 -14 -95 0 -110 114 -22 163 23 13 128 36 135 30 2 -2
5 -32 6 -66z"/>
<path d="M2243 1901 c-22 -9 -48 -22 -57 -30 -14 -12 -16 -11 -17 5 -1 11 -1
23 0 28 1 5 -8 6 -21 3 -13 -3 -47 -11 -76 -18 -40 -9 -52 -16 -50 -28 2 -11
13 -16 34 -15 l31 2 -2 -302 c-1 -165 -5 -308 -9 -318 -4 -9 -16 -18 -27 -21
-10 -3 -19 -11 -19 -19 0 -21 195 -19 195 2 1 20 -16 30 -40 24 -19 -5 -20 -1
-17 106 2 60 5 110 7 110 2 0 16 -5 32 -11 73 -28 168 -10 229 43 83 73 116
218 72 320 -46 108 -162 160 -265 119z m112 -55 c80 -52 98 -247 32 -343 -39
-57 -115 -74 -183 -42 l-29 14 0 175 0 174 40 23 c45 25 100 25 140 -1z"/>
<path d="M2799 1910 c-118 -21 -198 -140 -186 -280 7 -80 24 -118 75 -166 85
-80 231 -78 323 5 35 31 42 42 32 52 -10 10 -17 9 -35 -8 -65 -59 -158 -73
-221 -35 -42 27 -67 82 -74 165 l-5 57 153 1 c85 1 159 1 165 0 20 -2 24 27 9
76 -32 105 -118 154 -236 133z m97 -43 c20 -7 44 -50 59 -104 6 -23 6 -23
-120 -23 l-126 0 7 23 c28 93 98 134 180 104z"/>
<path d="M3170 1510 c-26 -26 -25 -64 2 -90 37 -34 88 -8 88 45 0 57 -52 83
-90 45z"/>
</g>
</svg>
